<svg xmlns="http://www.w3.org/2000/svg" viewBox="0 0 460.29 450.16"><defs><style>.cls-1{fill:#f5f5f5;}.cls-2{fill:#e0e0e0;}.cls-3{fill:#fafafa;}.cls-4{fill:#ebebeb;}.cls-5{fill:#fff;}.cls-6{fill:#263238;}.cls-15,.cls-7{opacity:0.3;}.cls-8{fill:#455a64;}.cls-9{fill:#ff725e;}.cls-10{fill:#6f4439;}.cls-11{fill:#ae7461;}.cls-12{fill:#ededed;}.cls-13{fill:#ffbf9d;}.cls-14{fill:#ff9a6c;}</style></defs><g id="Layer_2" data-name="Layer 2"><g id="Character_1" data-name="Character 1"><path class="cls-1" d="M26.58,441.8c-1.32-1.13-4.27-4.71-2-8.88.83-1.53,2.6-2.29,4.2-3a17.23,17.23,0,0,0,4.61-2.38c2.49-2.13,3.18-5.65,4.84-8.49,1.9-3.25,5.45-5.69,9.2-5.52,4.3.2,7.88,3.71,9.5,7.71s1.68,8.44,1.72,12.76c0,2.39-.09,5.08-1.85,6.69-1.61,1.49-4,1.51-6.24,1.44l-23.47-.72"/><path class="cls-2" d="M71.47,377.26H9.74l11.12,66.3a7.42,7.42,0,0,0,5.27,5.91l.22,0c.18.05.36.11.55.15a8.39,8.39,0,0,0,1.25.14v.06l.3,0H56a8.4,8.4,0,0,0,1.51-.15,7.43,7.43,0,0,0,6.24-6.48l5.36-45.69.25-1.82h0l2.12-18.09ZM59.83,419.55H53.49l.64-19.24h7.34Zm2.25-19.24h6.07l-2.26,19.24H60.44ZM44,440.88l-.39-16.71h9.12l-.55,16.71Zm-9.87-16.71H43l.38,16.71H35.42Zm.69,16.71H27.38c-.71-4.51-1.63-10.38-2.62-16.71h8.75Zm-1.05-21.33-1.49-19.24H42.44l.44,19.24Zm9.73,0-.44-19.24H53.52l-.64,19.24Zm-.55-23.86-.41-17.82H54.26l-.59,17.82Zm-.61,0H31.91l-1.38-17.82H41.92Zm-11,0h-11c-.39-2.46-.76-4.79-1.1-6.88-1.15-7.21-1.58-9.92-1.82-10.94H29.91Zm.35,4.62,1.5,19.24H24c-.31-1.95-.62-3.93-.93-5.9-.71-4.55-1.43-9.09-2.1-13.34Zm-8.24,19.24h-6l-3.22-19.24h6.15C21.32,406.26,22.36,412.87,23.41,419.55Zm.73,4.62c.9,5.78,1.8,11.49,2.62,16.71H21l-2.8-16.71Zm28.64,16.71.56-16.71h6.09L58,440.88Zm1.5-45.19.59-17.82h8.52l-1.53,17.82ZM16.77,377.87c.24,1.29,1.37,8.3,2.88,17.82h-6.2l-3-17.82Zm46.62,63H58.62l1.43-16.71h5.3Zm5.3-45.19H62.48L64,377.87h6.78Z"/><rect class="cls-3" x="363.55" y="95.01" width="83.2" height="74.44"/><path class="cls-2" d="M446.75,169.45s0-.48,0-1.39,0-2.24,0-4c0-3.5,0-8.61,0-15.11,0-13-.06-31.59-.1-54l.19.19-83.19,0h0l.22-.22c0,27.08,0,52.56,0,74.44l-.19-.2,60.18.1,17,.05,4.49,0,1.16,0h-1.11l-4.46,0-16.93,0-60.3.1h-.2v-.19c0-21.88,0-47.36,0-74.44v-.22h.23l83.19,0h.19V95c0,22.42-.07,41-.1,54.08,0,6.48,0,11.58,0,15.06,0,1.73,0,3,0,4S446.75,169.45,446.75,169.45Z"/><path class="cls-2" d="M395.45,108.24c0,.12-4.38.22-9.78.22s-9.78-.1-9.78-.22,4.38-.23,9.78-.23S395.45,108.11,395.45,108.24Z"/><path class="cls-2" d="M430.7,113.82c0,.13-12,.23-26.86.23S377,114,377,113.82s12-.22,26.88-.22S430.7,113.7,430.7,113.82Z"/><rect class="cls-2" x="376.03" y="123.29" width="3.51" height="3.51"/><rect class="cls-2" x="384.66" y="123.29" width="3.51" height="3.51"/><rect class="cls-2" x="393.45" y="123.13" width="3.51" height="3.51"/><rect class="cls-2" x="401.92" y="123.29" width="3.51" height="3.51"/><rect class="cls-2" x="410.55" y="123.29" width="3.51" height="3.51"/><rect class="cls-2" x="419.17" y="123.29" width="3.51" height="3.51"/><rect class="cls-4" x="427.8" y="123.29" width="3.51" height="3.51"/><rect class="cls-4" x="376.03" y="130.74" width="3.51" height="3.51"/><rect class="cls-2" x="384.66" y="130.74" width="3.51" height="3.51"/><rect class="cls-4" x="393.29" y="130.74" width="3.51" height="3.51"/><rect class="cls-2" x="401.92" y="130.74" width="3.51" height="3.51"/><rect class="cls-2" x="410.55" y="130.74" width="3.51" height="3.51"/><rect class="cls-2" x="419.33" y="130.58" width="3.51" height="3.51"/><rect class="cls-2" x="427.8" y="130.74" width="3.51" height="3.51"/><rect class="cls-2" x="376.03" y="138.2" width="3.51" height="3.51"/><rect class="cls-2" x="384.82" y="138.04" width="3.51" height="3.51"/><rect class="cls-2" x="393.29" y="138.2" width="3.51" height="3.51"/><rect class="cls-4" x="401.92" y="138.2" width="3.51" height="3.51"/><rect class="cls-2" x="410.55" y="138.2" width="3.51" height="3.51"/><rect class="cls-2" x="419.17" y="138.2" width="3.51" height="3.51"/><rect class="cls-2" x="427.8" y="138.2" width="3.51" height="3.51"/><rect class="cls-2" x="376.03" y="145.65" width="3.51" height="3.51"/><rect class="cls-2" x="384.66" y="145.65" width="3.51" height="3.51"/><rect class="cls-2" x="393.29" y="145.65" width="3.51" height="3.51"/><rect class="cls-2" x="402.08" y="145.49" width="3.51" height="3.51"/><rect class="cls-2" x="410.55" y="145.65" width="3.51" height="3.51"/><rect class="cls-4" x="419.17" y="145.65" width="3.51" height="3.51"/><rect class="cls-2" x="427.8" y="145.65" width="3.51" height="3.51"/><rect class="cls-2" x="376.03" y="153.1" width="3.51" height="3.51"/><rect class="cls-4" x="384.66" y="153.1" width="3.51" height="3.51"/><rect class="cls-2" x="393.29" y="153.1" width="3.51" height="3.51"/><rect class="cls-2" x="401.92" y="153.1" width="3.51" height="3.51"/><rect class="cls-2" x="410.55" y="153.1" width="3.51" height="3.51"/><rect class="cls-2" x="419.33" y="152.94" width="3.51" height="3.51"/><rect class="cls-2" x="427.8" y="153.1" width="3.51" height="3.51"/><circle class="cls-2" cx="400.77" cy="42.05" r="30.32" transform="translate(295.66 431.07) rotate(-80.87)"/><circle class="cls-5" cx="401.09" cy="41.74" r="27.44"/><path class="cls-4" d="M373.37,40.1s0,.15,0,.44,0,.75,0,1.32v1c0,.36.06.75.09,1.17s.08.87.13,1.35a13.24,13.24,0,0,0,.26,1.53,26,26,0,0,0,2.57,7.51,27.37,27.37,0,0,0,6.46,8.24l1.13,1c.4.3.82.58,1.24.88s.82.61,1.28.86l1.38.78.7.39.75.32,1.5.67c.52.21,1.06.35,1.59.54a15.24,15.24,0,0,0,1.63.48,24.53,24.53,0,0,0,3.44.63c.59.06,1.19.16,1.79.19l1.82,0c.3,0,.61,0,.92,0l.92-.08c.62-.06,1.24-.09,1.86-.18a29.36,29.36,0,0,0,3.73-.83l.93-.27.46-.14.46-.19,1.82-.73c.6-.28,1.18-.61,1.78-.91.29-.16.6-.29.88-.48l.84-.55A29.34,29.34,0,0,0,419,62.54l1.5-1.44.37-.36.35-.4.68-.8.68-.8.61-.86.61-.87.31-.44.27-.46,1.05-1.88c.29-.65.59-1.31.88-2a29.36,29.36,0,0,0,2-8.55,29.29,29.29,0,0,0-.84-8.74c-.21-.7-.41-1.39-.61-2.08l-.81-2-.2-.5-.25-.47L425.1,29l-.49-.94-.57-.89-.58-.88-.28-.43-.33-.41-1.29-1.63A29.12,29.12,0,0,0,418.62,21l-.76-.66c-.26-.22-.55-.39-.81-.59-.55-.38-1.09-.78-1.64-1.13l-1.72-1-.42-.24a4.43,4.43,0,0,0-.45-.2l-.88-.4a30.34,30.34,0,0,0-3.59-1.31c-.6-.17-1.22-.28-1.82-.42l-.91-.2c-.3-.06-.61-.08-.91-.12l-1.81-.21c-.6,0-1.2,0-1.79,0a26.76,26.76,0,0,0-3.49.17,13.52,13.52,0,0,0-1.69.27c-.55.11-1.1.19-1.64.33l-1.58.46-.78.23-.74.29-1.47.59c-.49.19-.93.46-1.39.69s-.91.46-1.34.7l-1.25.81a27.4,27.4,0,0,0-7.48,7.33,26,26,0,0,0-3.53,7.11,14.56,14.56,0,0,0-.46,1.48q-.15.7-.3,1.32c-.09.41-.19.79-.25,1.14s-.08.67-.12,1c-.07.57-.12,1-.16,1.3s-.07.45-.07.45,0-.16,0-.45.07-.74.13-1.31c0-.29.07-.61.11-1s.15-.73.23-1.15.19-.86.29-1.33a13,13,0,0,1,.45-1.49,26,26,0,0,1,3.49-7.17,27.6,27.6,0,0,1,7.51-7.41l1.25-.82c.44-.25.9-.47,1.35-.71s.91-.51,1.4-.7l1.48-.6.75-.3.79-.23,1.59-.47c.54-.14,1.1-.22,1.66-.34a13.68,13.68,0,0,1,1.7-.27,25.54,25.54,0,0,1,3.52-.18c.6,0,1.21,0,1.81,0l1.83.21c.3,0,.61.06.92.12l.91.2c.61.14,1.23.26,1.85.42a29.14,29.14,0,0,1,3.62,1.32l.9.4.44.2.44.24,1.73,1c.56.36,1.1.76,1.66,1.14.27.2.56.38.82.6l.77.66a31,31,0,0,1,3,2.88c.44.54.87,1.09,1.31,1.64l.33.41.29.44.58.89.58.9.5.94.5,1,.25.48.2.5.81,2c.21.7.42,1.4.62,2.1a30,30,0,0,1,.86,8.84,29.59,29.59,0,0,1-2,8.64c-.29.67-.59,1.34-.89,2l-1.06,1.89-.27.47-.31.44-.62.88-.62.88-.69.81-.69.8-.35.4-.38.37-1.51,1.46a31.28,31.28,0,0,1-3.32,2.46l-.85.55c-.29.19-.6.32-.9.48-.6.31-1.18.64-1.79.92l-1.84.74-.46.19-.47.14-.95.27a29.09,29.09,0,0,1-3.76.84c-.63.08-1.26.11-1.88.17l-.93.08c-.31,0-.62,0-.93,0l-1.84,0c-.61,0-1.2-.13-1.8-.19a25.93,25.93,0,0,1-3.47-.64,13.63,13.63,0,0,1-1.65-.5c-.53-.18-1.08-.33-1.6-.54L389.26,67l-.75-.33c-.24-.13-.48-.26-.71-.4l-1.39-.78c-.46-.25-.86-.59-1.29-.88s-.85-.58-1.25-.88l-1.13-1a27.58,27.58,0,0,1-6.48-8.33,26.16,26.16,0,0,1-2.53-7.56c-.08-.54-.23-1-.25-1.54s-.07-.94-.11-1.36-.07-.81-.08-1.16,0-.68,0-1c0-.57,0-1,0-1.32S373.37,40.1,373.37,40.1Z"/><path class="cls-2" d="M413.58,42.49a4.38,4.38,0,0,1-1,.07l-2.68,0c-2.28,0-5.45.06-9,.06h-.18v-2c0-4,0-7.61,0-10.23,0-1.27,0-2.31.06-3.11a6,6,0,0,1,.07-1.13,7.27,7.27,0,0,1,.07,1.13c0,.8,0,1.84,0,3.11,0,2.62.06,6.24.06,10.23v1.79l-.18-.17c3.58,0,6.75,0,9,.06l2.68,0A6.2,6.2,0,0,1,413.58,42.49Z"/><path class="cls-2" d="M401,18.58a7.62,7.62,0,0,1,.18,2.32,7.52,7.52,0,0,1-.18,2.31,7.52,7.52,0,0,1-.18-2.31A7.62,7.62,0,0,1,401,18.58Z"/><path class="cls-2" d="M413.56,22.3A7.49,7.49,0,0,1,412.07,24a7.2,7.2,0,0,1-1.74,1.49,7.2,7.2,0,0,1,1.49-1.74A7.49,7.49,0,0,1,413.56,22.3Z"/><path class="cls-2" d="M420.91,30.33A9.3,9.3,0,0,1,419,31.6a9.87,9.87,0,0,1-2,1.11,6,6,0,0,1,1.82-1.41A6.38,6.38,0,0,1,420.91,30.33Z"/><path class="cls-2" d="M425.22,42.25a27.83,27.83,0,0,1-6.32,0,29.45,29.45,0,0,1,6.32,0Z"/><path class="cls-2" d="M381.38,41.83a24.84,24.84,0,0,1-6,0,24.84,24.84,0,0,1,6,0Z"/><path class="cls-2" d="M384.48,50.71a12.72,12.72,0,0,1-2.25,2,13,13,0,0,1-2.49,1.77,14,14,0,0,1,2.26-2A13.32,13.32,0,0,1,384.48,50.71Z"/><path class="cls-2" d="M392.13,57.57a21.49,21.49,0,0,1-1.53,2.66A22.06,22.06,0,0,1,389,62.84a9.85,9.85,0,0,1,1.32-2.79A9.85,9.85,0,0,1,392.13,57.57Z"/><path class="cls-2" d="M401,66.42a14,14,0,0,1-.18-3.16A14,14,0,0,1,401,60.1a14,14,0,0,1,.18,3.16A14,14,0,0,1,401,66.42Z"/><path class="cls-2" d="M414.61,62.21A9.25,9.25,0,0,1,412,60.43a9.32,9.32,0,0,1-2.12-2.34,26,26,0,0,1,2.36,2.07A26.45,26.45,0,0,1,414.61,62.21Z"/><path class="cls-2" d="M421,55.32a10.83,10.83,0,0,1-2.1-1.84,11,11,0,0,1-1.84-2.09,10.83,10.83,0,0,1,2.1,1.84A11.41,11.41,0,0,1,421,55.32Z"/><path class="cls-2" d="M384.19,33.33a8.31,8.31,0,0,1-1.85-1.59,8.31,8.31,0,0,1-1.59-1.85,8.31,8.31,0,0,1,1.85,1.59A8.31,8.31,0,0,1,384.19,33.33Z"/><path class="cls-2" d="M392.08,25a8.13,8.13,0,0,1-1.81-1.56,8.36,8.36,0,0,1-1.57-1.81,8.05,8.05,0,0,1,1.82,1.56A8.13,8.13,0,0,1,392.08,25Z"/><path class="cls-1" d="M376.52,42a27.43,27.43,0,0,1,25.8-27.38c-.54,0-1.08-.06-1.63-.06a27.44,27.44,0,0,0,0,54.88c.55,0,1.09,0,1.63,0A27.44,27.44,0,0,1,376.52,42Z"/><rect class="cls-2" x="18.14" y="17.57" width="77.25" height="122.08"/><rect class="cls-1" x="20.22" y="19.87" width="72.82" height="117.78"/><rect class="cls-5" x="56.64" y="26.73" width="29.04" height="45.06"/><path class="cls-2" d="M72.7,30.71a1.09,1.09,0,1,1-1.09-1.08A1.09,1.09,0,0,1,72.7,30.71Z"/><rect class="cls-5" x="27.37" y="84.33" width="29.04" height="45.06"/><path class="cls-2" d="M43.44,88.31a1.09,1.09,0,1,1-1.09-1.08A1.08,1.08,0,0,1,43.44,88.31Z"/><rect class="cls-5" x="26.98" y="26.73" width="24.8" height="35.19"/><path class="cls-2" d="M40.28,29.92a.9.9,0,1,1-.9-.9A.9.9,0,0,1,40.28,29.92Z"/><rect class="cls-5" x="60.85" y="86.4" width="26.69" height="14.79" transform="translate(-10.05 8.91) rotate(-6.44)"/><path class="cls-2" d="M74.6,89.23a.92.92,0,1,1-.92-.92A.92.92,0,0,1,74.6,89.23Z"/><path class="cls-2" d="M52.53,94.6c0,.12-4.55.22-10.18.22s-10.18-.1-10.18-.22,4.56-.21,10.18-.21S52.53,94.48,52.53,94.6Z"/><path class="cls-2" d="M52.53,97.83c0,.12-4.55.21-10.18.21S32.17,98,32.17,97.83s4.56-.22,10.18-.22S52.53,97.71,52.53,97.83Z"/><path class="cls-2" d="M52.53,101.05c0,.12-4.55.22-10.18.22s-10.18-.1-10.18-.22,4.56-.22,10.18-.22S52.53,100.93,52.53,101.05Z"/><path class="cls-2" d="M52.53,104.27c0,.12-4.55.22-10.18.22s-10.18-.1-10.18-.22,4.56-.21,10.18-.21S52.53,104.15,52.53,104.27Z"/><path class="cls-2" d="M52.53,107.5c0,.12-4.55.21-10.18.21s-10.18-.09-10.18-.21,4.56-.22,10.18-.22S52.53,107.38,52.53,107.5Z"/><path class="cls-2" d="M52.53,110.72c0,.12-4.55.22-10.18.22s-10.18-.1-10.18-.22,4.56-.21,10.18-.21S52.53,110.6,52.53,110.72Z"/><path class="cls-2" d="M52.53,114c0,.12-4.55.21-10.18.21s-10.18-.09-10.18-.21,4.56-.22,10.18-.22S52.53,113.83,52.53,114Z"/><path class="cls-2" d="M84.14,91.15c0,.12-4.48.85-10,1.64S64,94.11,64,94s4.49-.86,10.06-1.64S84.12,91,84.14,91.15Z"/><path class="cls-2" d="M84.55,93.17c0,.11-4.49.85-10.06,1.63S64.4,96.13,64.38,96s4.48-.85,10.05-1.64S84.53,93.05,84.55,93.17Z"/><path class="cls-2" d="M84.92,95c0,.12-4.49.85-10.06,1.64S64.77,98,64.75,97.87s4.48-.85,10-1.63S84.9,94.91,84.92,95Z"/><path class="cls-2" d="M83.12,36.15c0,.12-5.15.22-11.5.22s-11.51-.1-11.51-.22,5.15-.21,11.51-.21S83.12,36,83.12,36.15Z"/><path class="cls-2" d="M83.12,38.07c0,.12-5.15.22-11.5.22s-11.51-.1-11.51-.22,5.15-.22,11.51-.22S83.12,38,83.12,38.07Z"/><path class="cls-2" d="M83.12,40c0,.12-5.15.21-11.5.21S60.11,40.11,60.11,40s5.15-.22,11.51-.22S83.12,39.87,83.12,40Z"/><path class="cls-2" d="M83.12,41.9c0,.12-5.15.22-11.5.22S60.11,42,60.11,41.9s5.15-.21,11.51-.21S83.12,41.79,83.12,41.9Z"/><path class="cls-2" d="M83.12,43.82c0,.12-5.15.22-11.5.22s-11.51-.1-11.51-.22,5.15-.22,11.51-.22S83.12,43.7,83.12,43.82Z"/><path class="cls-2" d="M83.12,45.74c0,.12-5.15.21-11.5.21s-11.51-.09-11.51-.21,5.15-.22,11.51-.22S83.12,45.62,83.12,45.74Z"/><path class="cls-2" d="M83.12,47.65c0,.12-5.15.22-11.5.22s-11.51-.1-11.51-.22,5.15-.21,11.51-.21S83.12,47.54,83.12,47.65Z"/><path class="cls-2" d="M83.12,53.34c0,.12-5.15.22-11.5.22s-11.51-.1-11.51-.22,5.15-.21,11.51-.21S83.12,53.22,83.12,53.34Z"/><path class="cls-2" d="M83.28,55.37c0,.12-5.15.21-11.5.21s-11.51-.09-11.51-.21,5.15-.22,11.51-.22S83.28,55.25,83.28,55.37Z"/><path class="cls-2" d="M83.44,57.39c0,.12-5.15.22-11.5.22s-11.51-.1-11.51-.22,5.15-.21,11.51-.21S83.44,57.27,83.44,57.39Z"/><path class="cls-2" d="M83.61,59.42c0,.12-5.16.21-11.51.21s-11.5-.09-11.5-.21,5.15-.22,11.5-.22S83.61,59.3,83.61,59.42Z"/><path class="cls-2" d="M83.77,61.44c0,.12-5.15.22-11.51.22s-11.5-.1-11.5-.22,5.15-.21,11.5-.21S83.77,61.32,83.77,61.44Z"/><path class="cls-2" d="M83.93,63.47c0,.12-5.15.21-11.51.21s-11.5-.09-11.5-.21,5.15-.22,11.5-.22S83.93,63.35,83.93,63.47Z"/><path class="cls-6" d="M460.29,449.9c0,.15-103,.26-230.14.26S0,450.05,0,449.9s103-.26,230.15-.26S460.29,449.76,460.29,449.9Z"/><rect class="cls-2" x="117.03" y="19.57" width="228.6" height="324.47" rx="9.24"/><path class="cls-6" d="M336.4,344l.71-.05a9.83,9.83,0,0,0,2.06-.4,9.24,9.24,0,0,0,5.79-5.45,8.89,8.89,0,0,0,.6-2.8c.05-1,0-2.08,0-3.2,0-2.24,0-4.69,0-7.34,0-5.31,0-11.44,0-18.33,0-27.59,0-67.51-.07-116.83,0-24.66,0-51.68,0-80.68q0-21.75,0-44.94V40.51q0-6,0-12a9,9,0,0,0-7-8.51,12,12,0,0,0-3-.23H126.3a9,9,0,0,0-9,8.57c0,4.66,0,9.34,0,14q0,13.94,0,27.69v54.13c0,35.49,0,69.73,0,102.34s0,63.6,0,92.6v10.78c0,1.78,0,3.57,0,5.32a9,9,0,0,0,1.64,4.82,9.18,9.18,0,0,0,3.95,3.16,10,10,0,0,0,2.46.63c.83.07,1.7.05,2.55.06h48.91l116.83.07,31.76.05,8.26,0c1.86,0,2.81,0,2.81,0s-.95,0-2.81,0l-8.26,0-31.76.05-116.83.07H127.83c-.85,0-1.71,0-2.59,0a9.85,9.85,0,0,1-2.56-.66,9.56,9.56,0,0,1-4.1-3.27,9.39,9.39,0,0,1-1.7-5c0-1.78,0-3.54,0-5.33V319.1c0-29,0-60,0-92.6s0-66.85,0-102.34q0-26.62,0-54.13V42.34c0-4.65,0-9.3,0-14a9.45,9.45,0,0,1,9.46-9H335.4a13.43,13.43,0,0,1,3.09.24,9.38,9.38,0,0,1,7.33,8.9q0,6,0,12,0,11.93,0,23.51,0,23.16,0,44.94c0,29,0,56,0,80.68,0,49.32-.05,89.24-.07,116.83,0,6.89,0,13,0,18.33,0,2.65,0,5.1,0,7.34,0,1.13,0,2.19,0,3.21a9,9,0,0,1-.62,2.82,9.31,9.31,0,0,1-2.81,3.84,9.75,9.75,0,0,1-3.05,1.63,10.38,10.38,0,0,1-2.07.38Z"/><g class="cls-7"><polygon points="136.98 336.71 328.84 336.71 326.74 296.8 326.74 275.56 136.98 305.21 136.98 336.71"/></g><g class="cls-7"><polygon points="289.02 20.23 293.38 33.17 293.38 39.5 288.46 39.5 289.02 20.23"/></g><polygon class="cls-5" points="127.23 32.57 127.23 330.63 282.72 330.63 335.44 330.63 335.44 32.57 127.23 32.57"/><path class="cls-6" d="M335.44,277.33s0-.38,0-1.14,0-1.9,0-3.39c0-3,0-7.42,0-13.19,0-11.56,0-28.47-.06-49.94,0-43,0-104.15-.08-177.1l.2.2-208.21,0,.22-.22v.27c0,114.58,0,219.21,0,297.79l-.17-.17,113.67.08,31,0,8.07,0,2.75,0-2.75,0-8.07,0-31,0-113.67.07h-.17v-.16c0-78.58,0-183.21,0-297.79v-.49h.22l208.21,0h.2v.19c0,72.95-.06,134.14-.08,177.1,0,21.47,0,38.38-.06,49.94,0,5.77,0,10.2,0,13.19,0,1.49,0,2.62,0,3.39S335.44,277.33,335.44,277.33Z"/><path class="cls-6" d="M190,11.49h92.7A6.33,6.33,0,0,1,289,17.82V42a0,0,0,0,1,0,0H183.67a0,0,0,0,1,0,0V17.82A6.33,6.33,0,0,1,190,11.49Z"/><polygon class="cls-6" points="249.75 0 222.94 0 226.07 22.98 246.27 22.98 249.75 0"/><path class="cls-8" d="M282.25,11.49c0,.12-20.55.22-45.9.22s-45.91-.1-45.91-.22,20.55-.22,45.91-.22S282.25,11.37,282.25,11.49Z"/><path class="cls-8" d="M186,37.12c-.12,0-.22-4.32-.22-9.66s.1-9.65.22-9.65.22,4.32.22,9.65S186.15,37.12,186,37.12Z"/><path class="cls-8" d="M285.61,34.83c-.12,0-.22-3.92-.22-8.76s.1-8.77.22-8.77.22,3.93.22,8.77S285.73,34.83,285.61,34.83Z"/><path class="cls-8" d="M280.53,38.9c0,.12-21.1.22-47.12.22s-47.13-.1-47.13-.22,21.1-.23,47.13-.23S280.53,38.77,280.53,38.9Z"/><rect class="cls-2" x="194.09" y="89.77" width="114.99" height="7.07"/><rect class="cls-2" x="194.09" y="104.21" width="52.17" height="7.02"/><rect class="cls-9" x="155.81" y="86.76" width="26.59" height="26.59" rx="3.86"/><polygon class="cls-5" points="168.72 106.38 161.27 100.63 163.28 98.03 168.27 101.89 175.38 93.72 177.85 95.87 168.72 106.38"/><rect class="cls-2" x="194.09" y="133.54" width="114.99" height="7.07"/><rect class="cls-2" x="194.09" y="147.97" width="52.17" height="7.02"/><rect class="cls-9" x="155.81" y="130.52" width="26.59" height="26.59" rx="3.86"/><polygon class="cls-5" points="168.72 150.14 161.27 144.39 163.28 141.79 168.27 145.65 175.38 137.48 177.85 139.63 168.72 150.14"/><rect class="cls-2" x="194.09" y="180.43" width="114.99" height="7.07"/><rect class="cls-2" x="194.09" y="194.86" width="52.17" height="7.02"/><rect class="cls-2" x="194.09" y="223.77" width="114.99" height="7.07"/><rect class="cls-2" x="194.09" y="238.21" width="52.17" height="7.02"/><rect class="cls-9" x="155.81" y="177.41" width="26.59" height="26.59" rx="3.86"/><polygon class="cls-5" points="168.72 197.03 161.27 191.28 163.28 188.68 168.27 192.54 175.38 184.37 177.85 186.52 168.72 197.03"/><path class="cls-9" d="M178.91,249H159.29a3.93,3.93,0,0,1-3.93-3.93V225.47a3.93,3.93,0,0,1,3.93-3.93h19.62a3.93,3.93,0,0,1,3.93,3.93v19.62A3.93,3.93,0,0,1,178.91,249Zm-19.62-26.58a3,3,0,0,0-3,3v19.62a3,3,0,0,0,3,3h19.62a3,3,0,0,0,3-3V225.47a3,3,0,0,0-3-3Z"/><rect class="cls-2" x="194.09" y="273.36" width="114.99" height="7.07"/><rect class="cls-2" x="194.09" y="287.8" width="52.17" height="7.02"/><path class="cls-9" d="M178.91,298.61H159.29a3.94,3.94,0,0,1-3.93-3.93V275.06a3.94,3.94,0,0,1,3.93-3.94h19.62a3.94,3.94,0,0,1,3.93,3.94v19.62A3.94,3.94,0,0,1,178.91,298.61ZM159.29,272a3,3,0,0,0-3,3v19.62a3,3,0,0,0,3,3h19.62a3,3,0,0,0,3-3V275.06a3,3,0,0,0-3-3Z"/><rect class="cls-9" x="180.25" y="62.41" width="114.64" height="9.82"/><path class="cls-6" d="M200,426.32s-3.45-23.73-3.17-37.53,0-29.34,0-29.34h1.59s-1.08,27.4.09,43.93,4.26,22.94,4.26,22.94H200"/><path class="cls-8" d="M210.32,332.76a4.23,4.23,0,0,0-1.45-2.13,4,4,0,0,0-3.46,0c-4.81,1.7-9.06,10.66-11,15.37l6.38,21.49C212.3,356.84,214.29,342.83,210.32,332.76Z"/><path class="cls-6" d="M208.49,331.5a.93.93,0,0,1-.09.28c-.08.21-.18.47-.31.79-.28.67-.67,1.66-1.14,2.88-.94,2.44-2.14,5.85-3.21,9.7s-1.8,7.38-2.25,10c-.23,1.29-.4,2.33-.51,3.06,0,.33-.1.61-.13.83a1.48,1.48,0,0,1-.07.29,1.34,1.34,0,0,1,0-.3c0-.22,0-.5.08-.84.08-.73.22-1.78.43-3.07a91.18,91.18,0,0,1,5.47-19.7c.49-1.21.91-2.19,1.22-2.85l.35-.77Z"/><path class="cls-8" d="M198,372.68a19.45,19.45,0,0,1-9.83-16.35c-.23-4.77,1.23-9.45,2.89-13.92a1.88,1.88,0,0,1,.68-1,1.72,1.72,0,0,1,1.63.26c4.34,2.47,7,7.19,8.37,12a24.08,24.08,0,0,1,1,9.86,16.41,16.41,0,0,1-4.73,9.18"/><path class="cls-6" d="M198,372.68a1.11,1.11,0,0,1,0-.29c0-.22,0-.49,0-.83,0-.71,0-1.75-.09-3a84,84,0,0,0-1.11-9.93c-.66-3.85-1.47-7.29-2.06-9.79-.3-1.21-.53-2.21-.71-2.95-.08-.32-.14-.59-.18-.8a1.2,1.2,0,0,1,0-.29,1.71,1.71,0,0,1,.1.28c.06.2.13.47.23.79.2.69.47,1.69.79,2.93.64,2.48,1.47,5.93,2.14,9.79a71.49,71.49,0,0,1,1,10c0,1.28,0,2.32,0,3,0,.34,0,.61,0,.83A1.11,1.11,0,0,1,198,372.68Z"/><g class="cls-7"><path d="M198,372.68a19.45,19.45,0,0,1-9.83-16.35c-.23-4.77,1.23-9.45,2.89-13.92a1.88,1.88,0,0,1,.68-1,1.72,1.72,0,0,1,1.63.26c4.34,2.47,7,7.19,8.37,12a24.08,24.08,0,0,1,1,9.86,16.41,16.41,0,0,1-4.73,9.18"/></g><path class="cls-8" d="M204.69,409c5.89,1.29,10.73,5.44,16.41,7.46,3.76,1.34,8,1.81,11,4.44-.72-1.82-2.42-3-4.08-4.07a73.81,73.81,0,0,0-14.87-7.1c-2.67-.92-5.57-1.69-8.29-.93"/><path class="cls-8" d="M196.18,414.22c-7.36-.12-15.12-6.39-22.46-6.77,7.68-2.47,18.67-.45,22.46,6.77"/><path class="cls-8" d="M199.06,396.54a24,24,0,0,1,11.79-.8,71.16,71.16,0,0,1,11.5,3.13c-.38-2.56-2.45-4.48-4.4-6.18a29.78,29.78,0,0,0-4.61-3.55,10.25,10.25,0,0,0-5.54-1.57,8.78,8.78,0,0,0-6.12,3.08,10.27,10.27,0,0,0-2.62,5.89"/><path class="cls-8" d="M183.94,388.41c-4.64-4-11.67-3.58-17.77-3.44a144.35,144.35,0,0,1,27.55,17.17C194,397.83,189.8,393.41,183.94,388.41Z"/><g class="cls-7"><path d="M183.94,388.41c-4.64-4-11.67-3.58-17.77-3.44a144.35,144.35,0,0,1,27.55,17.17C194,397.83,189.8,393.41,183.94,388.41Z"/></g><path class="cls-8" d="M201.15,382.94a50.67,50.67,0,0,1,7.14-4.15c2.44-1.11,4.72-2.88,7.07-4.15,3.06-1.66,5.71-4,8.52-6s5.89-3.91,9.32-4.45a18.2,18.2,0,0,0-8.48.49,53.93,53.93,0,0,0-8,3.11c-3.62,1.63-7.3,3.3-10.26,5.94s-5.63,5.26-5.32,9.22"/><path class="cls-6" d="M221,414.22a.89.89,0,0,1-.24-.1l-.64-.33c-.56-.3-1.35-.74-2.36-1.24-.49-.26-1-.54-1.64-.82s-1.23-.58-1.91-.87a27.72,27.72,0,0,0-4.54-1.58,9.65,9.65,0,0,0-4.73-.12,13.1,13.1,0,0,0-2,.59,11.1,11.1,0,0,0-1.62.83,10.87,10.87,0,0,0-2,1.68c-.43.46-.64.74-.65.73s0-.08.13-.22.24-.33.44-.58a9.65,9.65,0,0,1,2-1.76,10,10,0,0,1,1.64-.88,13.46,13.46,0,0,1,2-.63,9.84,9.84,0,0,1,4.84.1,26.55,26.55,0,0,1,4.57,1.62c.68.3,1.33.6,1.92.9s1.14.57,1.63.85c1,.52,1.78,1,2.32,1.31l.62.38A.87.87,0,0,1,221,414.22Z"/><path class="cls-6" d="M190.69,410.57a1.59,1.59,0,0,1,.46.13,10.74,10.74,0,0,1,1.2.53,14.6,14.6,0,0,1,3.52,2.49,14.81,14.81,0,0,1,2.64,3.42,11.68,11.68,0,0,1,.57,1.18,1.65,1.65,0,0,1,.15.46s-.32-.61-.88-1.54a16.23,16.23,0,0,0-6.09-5.85C191.31,410.86,190.67,410.61,190.69,410.57Z"/><path class="cls-6" d="M174.38,388a1.37,1.37,0,0,1,.32.09l.88.31,1.4.52c.54.2,1.13.5,1.8.79a42.85,42.85,0,0,1,9.59,6.11,49.44,49.44,0,0,1,4.48,4.41,51,51,0,0,1,3.17,4c.84,1.2,1.48,2.19,1.92,2.88l.5.79a3,3,0,0,1,.17.28s-.08-.08-.21-.25-.32-.43-.55-.77c-.46-.67-1.12-1.64-2-2.82s-1.94-2.53-3.21-4a47.58,47.58,0,0,0-4.46-4.36,44.66,44.66,0,0,0-9.5-6.15c-.66-.3-1.25-.61-1.78-.83l-1.38-.55-.86-.36Z"/><path class="cls-6" d="M210.12,392.4a2.27,2.27,0,0,1-.58-.08l-.68-.12c-.27-.05-.57-.05-.91-.09a9.18,9.18,0,0,0-7.37,2.71,10.7,10.7,0,0,0-1.48,1.83,14,14,0,0,0-1,1.94,2,2,0,0,1,.15-.58,7.92,7.92,0,0,1,.7-1.45,10,10,0,0,1,1.47-1.91,9,9,0,0,1,7.56-2.72c.34,0,.65.06.91.12l.68.17A2.19,2.19,0,0,1,210.12,392.4Z"/><path class="cls-6" d="M217.53,369.42a1.28,1.28,0,0,1-.28.17l-.82.45c-.72.39-1.75.95-3,1.69s-2.71,1.66-4.26,2.78a35.28,35.28,0,0,0-4.77,4,12.15,12.15,0,0,0-2,2.53c-.48.92-.95,1.82-1.37,2.68a49,49,0,0,0-2.05,4.66,27.11,27.11,0,0,0-1,3.28c-.19.79-.26,1.24-.29,1.23a2.54,2.54,0,0,1,0-.32c0-.22.07-.53.16-.93a23.43,23.43,0,0,1,.92-3.32,44.69,44.69,0,0,1,2-4.71c.42-.86.88-1.76,1.36-2.69a12,12,0,0,1,2-2.59,34.18,34.18,0,0,1,4.81-4c1.58-1.11,3.06-2,4.32-2.74s2.31-1.26,3-1.62l.85-.4Z"/><path class="cls-6" d="M196.86,391.74a5.17,5.17,0,0,1-.14-.63c-.09-.45-.2-1-.32-1.7a44.14,44.14,0,0,0-3.5-10.83l-.72-1.58a3.39,3.39,0,0,1-.24-.59,2.94,2.94,0,0,1,.33.55c.2.36.47.88.8,1.54a36.73,36.73,0,0,1,3.51,10.88c.11.72.2,1.31.24,1.72A2.39,2.39,0,0,1,196.86,391.74Z"/><path class="cls-8" d="M196.33,375a19.84,19.84,0,0,0-2.4-8,26.26,26.26,0,0,0-17.8-13.27l16.48,24.56,2.13,4.39A12.61,12.61,0,0,0,196.33,375Z"/><rect class="cls-9" x="181.65" y="423.38" width="38.32" height="6.79"/><polygon class="cls-9" points="184.51 428.83 187.77 449.9 213.22 449.9 217.11 428.83 184.51 428.83"/><path class="cls-6" d="M220,430.18c0,.08-8.64.14-19.3.14s-19.31-.06-19.31-.14,8.64-.13,19.31-.13S220,430.11,220,430.18Z"/><path class="cls-5" d="M361.71,187.15l-2-4.83a19.82,19.82,0,0,0,0-12,19.92,19.92,0,1,0-15.21,25.55,19.77,19.77,0,0,0,11.82-7.19h0Z"/><path class="cls-6" d="M361.71,187.15l-.33.11-1,.3-4,1.17a.08.08,0,0,1-.11-.06.09.09,0,0,1,0-.07h0l.16.1a19.94,19.94,0,0,1-7.6,5.95,20.92,20.92,0,0,1-6.17,1.63,20.1,20.1,0,0,1-7.23-.62,20.48,20.48,0,0,1-7.16-3.63,19.69,19.69,0,0,1-5.51-6.69,20.59,20.59,0,0,1-2.16-9,20.17,20.17,0,0,1,8.75-16.71,20.62,20.62,0,0,1,8.7-3.35,19.69,19.69,0,0,1,8.72.79A20.55,20.55,0,0,1,353.8,161a19.94,19.94,0,0,1,4.58,5.68l.73,1.53c.23.51.39,1,.58,1.53a18.19,18.19,0,0,1,.78,3,19.89,19.89,0,0,1-.7,9.59v-.06c.63,1.55,1.12,2.77,1.47,3.62l.36.93a1.81,1.81,0,0,1,.11.31s-.06-.12-.15-.33-.24-.54-.42-.93l-1.54-3.53a.15.15,0,0,1,0-.06,19.84,19.84,0,0,0,.58-9.49,18.57,18.57,0,0,0-.78-2.94c-.2-.49-.36-1-.58-1.5s-.49-1-.74-1.5a19.77,19.77,0,0,0-4.53-5.56,20.13,20.13,0,0,0-6.94-3.81,19.15,19.15,0,0,0-8.53-.75,20.15,20.15,0,0,0-8.5,3.28A19.75,19.75,0,0,0,321,176.36a20,20,0,0,0,2.1,8.76,19.31,19.31,0,0,0,5.38,6.57,20.21,20.21,0,0,0,7,3.58,19.59,19.59,0,0,0,7.09.65,20.54,20.54,0,0,0,6.09-1.56,20,20,0,0,0,7.57-5.79.09.09,0,0,1,.13,0,.08.08,0,0,1,0,.11h0l-.12-.13,4-1.05,1-.27A1.87,1.87,0,0,1,361.71,187.15Z"/><circle class="cls-6" cx="333.89" cy="176.79" r="2.18"/><path class="cls-6" d="M343.41,176.79a2.18,2.18,0,1,1-2.18-2.18A2.18,2.18,0,0,1,343.41,176.79Z"/><circle class="cls-6" cx="348.38" cy="176.79" r="2.18"/><path class="cls-5" d="M97.05,146.05l1-5.57a18.94,18.94,0,1,1,4.37,5.2h0Z"/><path class="cls-6" d="M97.05,146.05h.33l1,0,4-.22a.09.09,0,0,0,.07-.09.06.06,0,0,0,0,0h0l-.11.11a18.89,18.89,0,0,0,8.27,4,19.09,19.09,0,0,0,2.92.37c.51,0,1,0,1.56,0a7.18,7.18,0,0,0,.8,0l.8-.09a19.13,19.13,0,0,0,14.89-27.39,19.41,19.41,0,0,0-2.6-3.91,19.65,19.65,0,0,0-3.42-3.16,19.36,19.36,0,0,0-12.64-3.48,19.1,19.1,0,0,0-7.85,2.42,19.33,19.33,0,0,0-5.73,5,19.12,19.12,0,0,0-3.92,12.15,18.8,18.8,0,0,0,2.53,8.87v-.05q-.44,2.72-.66,4.17l-.16,1.06c0,.23,0,.35,0,.35s0-.13.08-.38.11-.61.2-1.07c.17-.95.42-2.33.75-4.1a.13.13,0,0,0,0-.06,18.73,18.73,0,0,1-2.41-8.79,18.81,18.81,0,0,1,17.27-19.19,18.45,18.45,0,0,1,8.46,1.3,18,18,0,0,1,7.27,5.23,19.28,19.28,0,0,1,2.55,3.82,19.06,19.06,0,0,1,1.48,4.26,18.75,18.75,0,0,1-.1,8.63,19,19,0,0,1-3.65,7.25,18.62,18.62,0,0,1-12.3,6.79l-.8.09c-.26,0-.52,0-.78,0-.52,0-1,0-1.54,0a17.59,17.59,0,0,1-2.88-.35,18.87,18.87,0,0,1-8.22-3.9s-.09,0-.11,0a.08.08,0,0,0,0,.1h0l.06-.12-3.93.31-1,.09Z"/><polygon class="cls-9" points="106.26 132.42 108.35 130.33 112.37 133.91 120.28 126.31 122.22 128.39 112.08 137.94 106.26 132.42"/><path class="cls-8" d="M441.56,350.48c0-.24.05-.47.06-.71.2-4.49-1.63-8.81-3.39-13-4.72-11.12-9.28-22.92-8-34.92,1.75-15.87,13.42-29,17.59-44.34a4.15,4.15,0,0,1,4-3.05h0a4.16,4.16,0,0,1,4,5.4c-4.64,14.35-15.23,26.94-16.89,42-1.32,12,3.24,23.8,8,34.92,1.75,4.15,3.58,8.47,3.38,13s-3.09,9.23-7.55,10H376.47a4.18,4.18,0,0,1-4.19-4.17v-.9a4.18,4.18,0,0,1,4.19-4.17Z"/><path class="cls-2" d="M454.9,449.9H358.66a4.22,4.22,0,0,1-3.43-1.81,5.19,5.19,0,0,1-.71-4.65l27.4-83.95,1.43.47-27.4,84a3.71,3.71,0,0,0,.49,3.3,2.77,2.77,0,0,0,2.22,1.19H454.9a2.7,2.7,0,0,0,2.17-1.14,3.7,3.7,0,0,0,.58-3.2L434.1,359.93l1.45-.41,23.54,84.13a5.21,5.21,0,0,1-.82,4.52A4.25,4.25,0,0,1,454.9,449.9Z"/><path class="cls-10" d="M319.92,297.53s3.5-8.52,7-10.32a44.89,44.89,0,0,1,7.87-3h15.42l.15,10A6.81,6.81,0,0,1,345,296c-3.05-.42-10.66-2.3-10.66-2.3l-3.76.2-3.47,4.45s-2.81.85-1.82-1.81l1.43-3.83s-3.33,5.17-4.61,5.41A2.81,2.81,0,0,1,319.92,297.53Z"/><path class="cls-11" d="M383.62,265.41l-12.26,17.64-21.19,1.2-.29,9.68,16,3.15a25.73,25.73,0,0,0,22.92-6.81h0l2.33-21.34Z"/><path class="cls-6" d="M374.11,411.73l14.26,13.95s-10.3,19.87-7.93,22.71l29.76-28-21.26-22.68Z"/><path class="cls-2" d="M396.42,415.8a1.58,1.58,0,0,1,2.08.52,1.6,1.6,0,0,1-.62,2.08,1.66,1.66,0,0,1-2.2-.56,1.69,1.69,0,0,1,.88-2.11"/><path class="cls-8" d="M410.2,420.39l-2.24-2.2-27.69,27.67s-.81,1.79.17,2.53Z"/><path class="cls-5" d="M387.75,426c.13.13.92-.49,2.05-.72s2.06,0,2.14-.2-.88-.77-2.25-.46S387.6,425.89,387.75,426Z"/><path class="cls-5" d="M385.78,430.14c.09.17.94-.19,2-.08s1.76.6,1.9.45-.5-1-1.8-1.12S385.66,430,385.78,430.14Z"/><path class="cls-5" d="M387.35,435.33c.16-.09-.29-1-1.37-1.37s-2.05,0-2,.12.84.18,1.73.52S387.19,435.46,387.35,435.33Z"/><path class="cls-5" d="M384.87,422.43c.18.07.67-.75,1.54-1.47s1.75-1.08,1.71-1.27-1.11-.09-2.13.77S384.7,422.39,384.87,422.43Z"/><path class="cls-6" d="M375.78,312.36c-2.6,0-66.11,18.5-73,24.75s-12,83.64-12,83.64l26.63,9.13s5.61-37.79,9-50a62.49,62.49,0,0,0,2.08-18.76l52.72-23Z"/><path class="cls-6" d="M377.39,316.45c-1.19.52-47.33,20.22-51.67,33.42-3.53,10.76.58,20.23,5.51,27.63,5.58,8.35,46.45,45.65,46.45,45.65l23.06-16.5L361.2,365.81S382,353,382.66,353s22.28-1.43,29.11-2.2c6.39-.73,9.88-9.88,9.88-9.88l5.7-26.25-42.8-9.88Z"/><path class="cls-8" d="M377.39,316.45s.14-.26.45-.77.76-1.25,1.35-2.24c1.21-2,3-4.88,5.3-8.68l0,0h.05l42.81,9.81.13,0,0,.14c-1.7,7.89-3.62,16.75-5.67,26.25h0a22.8,22.8,0,0,1-4.06,6.58,11.7,11.7,0,0,1-3.13,2.49,4.61,4.61,0,0,1-.93.43,5.48,5.48,0,0,1-1,.31c-.34.07-.68.15-1,.19l-1,.11c-5.4.53-11,.93-16.74,1.35l-8.73.6-2.23.13-.28,0c-.07,0-.06,0-.09,0l-.11.05-.48.24-1,.54c-1.3.74-2.59,1.51-3.89,2.28-5.2,3.11-10.48,6.35-15.85,9.66l0-.3,30.89,31.89,8.66,8.95.16.16-.18.13L377.79,423.3l-.13.09-.11-.1q-12.39-11.35-23.72-22.18-5.65-5.4-10.95-10.67c-3.52-3.52-6.94-7-10-10.58-.4-.43-.73-.93-1.1-1.39a15.67,15.67,0,0,1-1-1.44c-.64-1-1.25-2-1.81-3a41.4,41.4,0,0,1-2.87-6.17,31,31,0,0,1-1.59-6.4,27.09,27.09,0,0,1,0-6.36,23.69,23.69,0,0,1,1.44-6,17.19,17.19,0,0,1,3.4-4.82,57.27,57.27,0,0,1,8.51-7,165.58,165.58,0,0,1,16.15-9.67c4.87-2.6,9.12-4.68,12.6-6.33s6.19-2.87,8-3.68l2.1-.91c.47-.2.72-.29.72-.29l-.71.33-2.09.93c-1.83.83-4.54,2.07-8,3.74s-7.7,3.77-12.56,6.38a167.68,167.68,0,0,0-16.1,9.7,56.41,56.41,0,0,0-8.45,7,16.78,16.78,0,0,0-3.34,4.74,23.26,23.26,0,0,0-1.41,5.89,26.51,26.51,0,0,0,.06,6.29,30.4,30.4,0,0,0,1.58,6.33,41.29,41.29,0,0,0,2.85,6.12c.56,1,1.17,2,1.8,3a16,16,0,0,0,1,1.42c.36.46.69.94,1.09,1.38,3.07,3.58,6.49,7,10,10.54s7.18,7.06,10.95,10.66c7.53,7.19,15.47,14.59,23.72,22.16l-.24,0,23.07-16.49,0,.29-8.66-9L361.06,366l-.17-.17.21-.13q8.06-5,15.86-9.65c1.3-.77,2.59-1.54,3.9-2.28l1-.54c.17-.09.33-.18.52-.26l.14-.06.19,0H383l2.22-.13,8.74-.59c5.74-.42,11.34-.81,16.73-1.34a8.93,8.93,0,0,0,3.8-1,11.35,11.35,0,0,0,3-2.42,22.54,22.54,0,0,0,4-6.47v0c2.06-9.49,4-18.35,5.71-26.24l.11.16-42.78-9.94.07,0c-2.34,3.78-4.15,6.69-5.36,8.66l-1.39,2.21C377.55,316.21,377.39,316.45,377.39,316.45Z"/><path class="cls-6" d="M381.58,190.23A4.32,4.32,0,0,1,379,182a4.5,4.5,0,0,1,3.25-7.9A5.39,5.39,0,0,1,390,169a6.05,6.05,0,0,1,7.41-.79,4.31,4.31,0,0,1,4.43,6.95"/><path class="cls-11" d="M398.7,172.38l-.95.08A18.36,18.36,0,0,0,381,190.89c.07,8.9.26,18.73.74,23.47,1,9.8,10.94,10.46,10.94,10.46l.21,11.86,23.76-2.84-1.68-43C415,180.62,409,172.07,398.7,172.38Z"/><path class="cls-10" d="M392.67,224.82a23.87,23.87,0,0,0,12.46-4.91s-2.52,7.51-12.4,7.49Z"/><path class="cls-6" d="M384.55,200a1.41,1.41,0,0,0,1.48,1.3,1.35,1.35,0,0,0,1.33-1.39,1.4,1.4,0,0,0-1.47-1.3A1.35,1.35,0,0,0,384.55,200Z"/><path class="cls-6" d="M383.55,195.51c.19.16,1.18-.72,2.69-.84s2.68.52,2.82.32-.13-.4-.64-.71a3.92,3.92,0,0,0-2.29-.49,3.79,3.79,0,0,0-2.12.9C383.58,195.09,383.45,195.43,383.55,195.51Z"/><path class="cls-6" d="M398.11,199.21a1.42,1.42,0,0,0,1.48,1.3,1.34,1.34,0,0,0,1.33-1.39,1.4,1.4,0,0,0-1.47-1.3A1.35,1.35,0,0,0,398.11,199.21Z"/><path class="cls-6" d="M398.4,194.48c.19.17,1.18-.71,2.69-.84s2.68.52,2.82.32-.13-.4-.64-.71a4,4,0,0,0-2.29-.49,3.79,3.79,0,0,0-2.12.9C398.43,194.06,398.3,194.4,398.4,194.48Z"/><path class="cls-6" d="M393.91,206.15a9.64,9.64,0,0,0-2.49-.23c-.39,0-.76,0-.85-.31a2,2,0,0,1,.16-1.16l.88-3c1.21-4.32,2.05-7.85,1.88-7.9s-1.3,3.41-2.51,7.73c-.29,1.06-.57,2.07-.83,3a2.21,2.21,0,0,0-.07,1.53,1,1,0,0,0,.69.51,2.54,2.54,0,0,0,.66,0A10.3,10.3,0,0,0,393.91,206.15Z"/><path class="cls-6" d="M396.57,188.79c.24.36,1.49-.16,3.08-.36s3,0,3.06-.45c.05-.2-.27-.52-.87-.77a4.68,4.68,0,0,0-2.43-.29,4.54,4.54,0,0,0-2.24.91C396.67,188.23,396.47,188.62,396.57,188.79Z"/><path class="cls-6" d="M382.92,189.29c.35.32,1.56-.15,3.06-.3s2.78,0,3-.39c.12-.19-.11-.52-.7-.79a4.78,4.78,0,0,0-2.53-.34,4.88,4.88,0,0,0-2.38.9C382.91,188.77,382.77,189.14,382.92,189.29Z"/><path class="cls-6" d="M381.56,186.31s2-6.38,4.88-8.07c3.43-2.06,5.33,1.74,8.66.49s6.61-3.23,10.34-.9c4.08,2.56,2.47,4.75,3.09,9.08,2.52,17.57,6.19,22.28,6.37,13.88,0-.92,2.48-1.87,2.52-5.75,0-5-.3-11.11-1.73-14.56-1.2-2.9-3.09-4.81-6.34-6.82-5.14-3.16-11.76-2.65-16.22-1.8S380.47,178.65,381.56,186.31Z"/><path class="cls-11" d="M414.25,200.58a2.68,2.68,0,0,1,2.65-2.82c1.84,0,4,.87,4.19,4.66.38,6.73-6.46,5.72-6.48,5.53S414.38,203.4,414.25,200.58Z"/><path class="cls-10" d="M415.93,205.34s.12.07.33.15a1.15,1.15,0,0,0,.87,0,2.91,2.91,0,0,0,1.2-2.68,4,4,0,0,0-.42-1.66,1.4,1.4,0,0,0-.94-.85.6.6,0,0,0-.67.36c-.08.2,0,.33-.06.34s-.16-.1-.12-.38a.75.75,0,0,1,.24-.44.92.92,0,0,1,.64-.21,1.67,1.67,0,0,1,1.29,1,4,4,0,0,1,.51,1.85,3,3,0,0,1-1.55,3,1.25,1.25,0,0,1-1.08-.12C416,205.5,415.91,205.35,415.93,205.34Z"/><path class="cls-6" d="M413,187.59a6.36,6.36,0,0,1-2.73,1.56,2.19,2.19,0,0,1-2.56-1.32c-.12-.46-.06-1-.4-1.35s-1.06-.2-1.62-.09c-1.93.38-4.4-1.57-5.07-3.43a1.76,1.76,0,0,1-2.3.69,6.45,6.45,0,0,1-1.74-1.29,2.79,2.79,0,0,0-2.4-1,6.86,6.86,0,0,1-1.44.45c-.88,0-1.41-1-1.62-1.86s-.4-1.87-1.19-2.28a3.52,3.52,0,0,0-2.4.15c-.8.19-1.87.09-2.15-.69a1.61,1.61,0,0,1,.2-1.24,4.36,4.36,0,0,1,5-2.1,5.91,5.91,0,0,1,10.72-2.1,6,6,0,0,1,9.75,1.34,4.35,4.35,0,0,1,5.44,5.87A4.13,4.13,0,0,1,419,182c.14,1.38-1.09,2.89-2.46,2.64a2.41,2.41,0,0,1-3.94,2.76"/><path class="cls-8" d="M390.21,175.86s0,0,0,.12,0,.21.07.36a4.53,4.53,0,0,0,.6,1.25,4.9,4.9,0,0,0,1.63,1.45,4.46,4.46,0,0,0,2.82.54l-.13-.13a2.47,2.47,0,0,0,.3,1.84,7,7,0,0,0,1.3,1.54,4.82,4.82,0,0,0,.82.71,2.44,2.44,0,0,0,1.09.3,2.47,2.47,0,0,0,2.1-1l-.26-.05a5.06,5.06,0,0,0,2.44,3.3,3.79,3.79,0,0,0,2.27.53,6.8,6.8,0,0,0,2.13-.67l-.19-.07a5.24,5.24,0,0,0,1.77,1.93,2.81,2.81,0,0,0,2.4.43,3.72,3.72,0,0,0,2.59-3.14l-.15.08a3.48,3.48,0,0,0,2.34.14,3.82,3.82,0,0,0,1.54-.86,3.17,3.17,0,0,0,.68-.89,2,2,0,0,0,.14-.36,4.21,4.21,0,0,1-.89,1.17,3.81,3.81,0,0,1-1.52.78,3.33,3.33,0,0,1-2.2-.16l-.14-.06v.14A3.48,3.48,0,0,1,411.3,188a2.54,2.54,0,0,1-2.17-.42,5.09,5.09,0,0,1-1.67-1.83l-.06-.12-.12.06a6.56,6.56,0,0,1-2,.64,3.39,3.39,0,0,1-2.09-.5,4.76,4.76,0,0,1-2.31-3.1l-.07-.31-.19.26a2.16,2.16,0,0,1-1.85.85,2,2,0,0,1-1-.26,4.23,4.23,0,0,1-.77-.66,6.2,6.2,0,0,1-1.26-1.48,2.21,2.21,0,0,1-.3-1.66l0-.16-.17,0a4.37,4.37,0,0,1-2.69-.47,4.79,4.79,0,0,1-1.61-1.38A5,5,0,0,1,390.21,175.86Z"/><path class="cls-6" d="M394,211c0-.26,1.7-.06,3.06-1.35s1.4-3.11,1.64-3.09.27.43.2,1.19a4.23,4.23,0,0,1-1.26,2.6,3.75,3.75,0,0,1-2.56,1C394.41,211.33,394,211.09,394,211Z"/><path class="cls-6" d="M296.84,410.79l-3.1,21.53s-24.13,3.73-25.11,7.64l43.82,8.18,6.28-33.32Z"/><path class="cls-2" d="M307.62,433.05a1.74,1.74,0,0,1,.88,2.17,1.76,1.76,0,0,1-2.23.8,1.82,1.82,0,0,1-.92-2.3,1.85,1.85,0,0,1,2.42-.59"/><path class="cls-8" d="M312.45,448.14l.49-3.38-42.19-6.58s-2.1.44-2.12,1.78Z"/><path class="cls-5" d="M293.07,432c0,.2,1,.49,1.95,1.34s1.34,1.8,1.55,1.76.11-1.27-1-2.28S293.05,431.78,293.07,432Z"/><path class="cls-5" d="M288.14,432.92c-.08.18.78.7,1.35,1.7s.61,1.93.83,2,.56-1.08-.17-2.31S288.18,432.73,288.14,432.92Z"/><path class="cls-5" d="M284.58,437.64c.18.08.67-.88.32-2.09s-1.26-1.84-1.39-1.69.39.86.66,1.86S284.37,437.58,284.58,437.64Z"/><path class="cls-5" d="M294.35,427.16c0,.2,1.09.1,2.28.41s2.07.84,2.22.68-.63-1-2.05-1.38S294.27,427,294.35,427.16Z"/><path class="cls-12" d="M391.82,238.21l.9-4.07,23.94-11.89,2.08,3.26s9,7.29,12.39,13.61-.64,58.12-1.21,65.68C428.76,320,423.07,340,423.07,340s-7.68-5.35-30.27-14.62S369,311.87,369,311.87L382.31,295Z"/><path class="cls-12" d="M392.18,239.64c-.13.75-10.95,26.72-10.95,26.72s5.62,3.14,6.41,3.29S392.18,239.64,392.18,239.64Z"/><path class="cls-6" d="M391.09,243.9c.11,0-.85,6.61-2.14,14.74s-2.42,14.69-2.53,14.68.85-6.62,2.15-14.75S391,243.88,391.09,243.9Z"/><path class="cls-11" d="M315.18,295.86s6.44-9.51,10.28-11.18a47.94,47.94,0,0,1,8.65-2.58l16.21,2.17L350,294a7.28,7.28,0,0,1-5.78,1.54c-3.24-.68-11.25-3.26-11.25-3.26l-4-.06-4,4.5s-3.07.7-1.81-2.07,1.82-4,1.82-4-3.95,5.29-5.34,5.45A27.91,27.91,0,0,1,315.18,295.86Z"/><path class="cls-11" d="M399.88,257.76l-11.24,26.12-38.47.37-.29,9.68s37.1,13.08,47,10.54S423.13,267,423.13,267Z"/><path class="cls-12" d="M409,235.73c-1.05,1-4.53,5-8.24,13.91s-8.92,19.26-8.92,19.26l26.53,10.57s6-13.91,8.85-20.1c2.14-4.71,3.64-14,1.69-18.47S418.22,227.35,409,235.73Z"/><path class="cls-6" d="M409,235.73l.24-.23c.17-.15.41-.38.75-.65a13.11,13.11,0,0,1,3.27-1.93,9.92,9.92,0,0,1,5.95-.44,14.2,14.2,0,0,1,6.8,4.06,16.59,16.59,0,0,1,2.77,3.74,12.21,12.21,0,0,1,1.16,4.91,35.06,35.06,0,0,1-1.39,11,41.05,41.05,0,0,1-2.19,5.6q-1.23,2.81-2.52,5.72-2.56,5.83-5.29,12l-.08.17-.17-.07-.39-.15-26.13-10.44-.18-.07.09-.17c2.47-5,4.67-9.59,6.55-13.74s3.32-7.87,4.89-10.79a44.37,44.37,0,0,1,4-6.53c.55-.7,1-1.22,1.32-1.55a5.91,5.91,0,0,1,.51-.48l-.12.13-.35.39c-.31.34-.74.87-1.27,1.58a46.77,46.77,0,0,0-3.94,6.56c-1.54,2.91-2.94,6.65-4.82,10.81s-4,8.8-6.5,13.78l-.09-.25L418,279.13l.38.16-.25.1c1.82-4.12,3.59-8.15,5.31-12q1.27-2.92,2.52-5.72a41.2,41.2,0,0,0,2.19-5.55,35,35,0,0,0,1.4-10.88,11.94,11.94,0,0,0-1.1-4.79,16.18,16.18,0,0,0-2.7-3.69,14,14,0,0,0-6.65-4,9.79,9.79,0,0,0-5.84.37,13.87,13.87,0,0,0-3.28,1.85c-.35.26-.59.48-.77.62A2.53,2.53,0,0,1,409,235.73Z"/><path class="cls-10" d="M332.18,287a12.27,12.27,0,0,0-4.1,1,12.09,12.09,0,0,0-3.27,2.69,2.83,2.83,0,0,1,.66-1.11,7.75,7.75,0,0,1,2.43-1.93,7.64,7.64,0,0,1,3-.81A3,3,0,0,1,332.18,287Z"/><path class="cls-10" d="M394.61,270a1.22,1.22,0,0,1-.08.27l-.3.76c-.29.7-.68,1.66-1.18,2.86L388.81,284l-.05.1h-.11l-11.69.13-18.95.13h-5.74l-1.56,0a2.1,2.1,0,0,1-.54,0l.54,0,1.56,0L358,284,377,283.8l11.68-.1-.16.11c1.79-4.08,3.3-7.52,4.38-10l1.27-2.81.34-.75C394.56,270.09,394.6,270,394.61,270Z"/><rect class="cls-8" x="46.77" y="304.8" width="7.41" height="144.91"/><rect class="cls-8" x="350.77" y="305.82" width="7.41" height="143.91"/><rect class="cls-8" x="28.27" y="303.37" width="337.24" height="8.74"/><path class="cls-6" d="M362.26,312.12c0,.11-39.35.19-87.88.19s-87.9-.08-87.9-.19,39.35-.2,87.9-.2S362.26,312,362.26,312.12Z"/><path class="cls-6" d="M265.19,252.22h0a1.64,1.64,0,0,1,1.91,1.31l9.13,48.36h44.38a1.2,1.2,0,0,1,1.2,1.2h0a1.2,1.2,0,0,1-1.2,1.2H273.54v-.19l-.21,0-9.44-50A1.64,1.64,0,0,1,265.19,252.22Z"/><path class="cls-6" d="M42.79,139.38a24.07,24.07,0,0,1,17.76-10.91c4.22-.45,6,.27,9.15.82a13.38,13.38,0,0,1,8,4.35A22.45,22.45,0,0,1,83,143.45a32.24,32.24,0,0,1,.35,10.69,42.72,42.72,0,0,1-4.58,13.08l-6.42,1.36c-5.36.67-10.81,1.33-16.16.57S45.52,166,42.3,161.67C37.83,155.63,38.56,145.59,42.79,139.38Z"/><path class="cls-13" d="M51.46,138.54,64,132.22l3.43.09c7.64-.66,13.66,7.3,14.27,13.48.66,6.87,1.21,15.28.57,20.45-1.29,10.38-9.91,12-9.91,12s1.45,12.11,1.82,15.52l-20.81-6.36-5-45.07A3.64,3.64,0,0,1,51.46,138.54Z"/><path class="cls-14" d="M66.76,165.22a2.23,2.23,0,0,1,3.31-1.8,3,3,0,0,1,1.38,2.69h0a2.78,2.78,0,0,1-1.84,1.29l-.36,0a2.43,2.43,0,0,1-1.69-.5A2.17,2.17,0,0,1,66.76,165.22Z"/><path class="cls-6" d="M79.7,155.07a1.33,1.33,0,0,1-1.24,1.38,1.27,1.27,0,0,1-1.4-1.15,1.32,1.32,0,0,1,1.23-1.38A1.27,1.27,0,0,1,79.7,155.07Z"/><path class="cls-6" d="M79.66,149.44c-.15.17-1.18-.53-2.61-.48s-2.44.8-2.6.63.07-.39.52-.74a3.68,3.68,0,0,1,2.08-.72,3.52,3.52,0,0,1,2.08.6C79.58,149.05,79.74,149.36,79.66,149.44Z"/><path class="cls-6" d="M71.54,161.37a9.53,9.53,0,0,1,2.3-.49c.36,0,.71-.14.76-.39a1.85,1.85,0,0,0-.28-1.07l-1.17-2.73a49.39,49.39,0,0,1-2.67-7.17c.16-.06,1.61,3,3.24,6.94.39,1,.77,1.87,1.12,2.75a2,2,0,0,1,.24,1.42.9.9,0,0,1-.58.55,2.55,2.55,0,0,1-.61.11A9.06,9.06,0,0,1,71.54,161.37Z"/><path class="cls-14" d="M72.37,178.23a26.27,26.27,0,0,1-14-3.21s3.93,7,14.23,5.71Z"/><path class="cls-6" d="M79.67,145.07c-.23.36-1.33.16-2.6.31s-2.32.52-2.61.22c-.13-.15,0-.49.43-.86a3.88,3.88,0,0,1,2-.8,3.75,3.75,0,0,1,2.16.38C79.58,144.59,79.77,144.9,79.67,145.07Z"/><path class="cls-6" d="M65.06,156.14a1.33,1.33,0,0,0,1.37,1.24,1.27,1.27,0,0,0,1.28-1.29,1.32,1.32,0,0,0-1.37-1.24A1.27,1.27,0,0,0,65.06,156.14Z"/><path class="cls-6" d="M60.42,150.6c.17.16,1.12-.65,2.55-.75s2.51.54,2.65.35-.11-.38-.59-.68a3.68,3.68,0,0,0-2.15-.5,3.49,3.49,0,0,0-2,.82C60.46,150.2,60.33,150.53,60.42,150.6Z"/><path class="cls-6" d="M62.3,145.57c.29.31,1.37-.09,2.69-.17s2.46.08,2.7-.27c.1-.17-.1-.49-.6-.77a4.2,4.2,0,0,0-2.22-.41,4,4,0,0,0-2.12.77C62.3,145.08,62.16,145.42,62.3,145.57Z"/><path class="cls-13" d="M51.64,159.45c0-.77-1-2.55-1.75-2.65-2-.24-5.69,0-5.54,5.2.19,7,7.22,5.39,7.23,5.19S51.73,162.11,51.64,159.45Z"/><path class="cls-14" d="M49.56,164.67s-.12.09-.32.19a1.26,1.26,0,0,1-.92,0,3.06,3.06,0,0,1-1.48-2.69,4.08,4.08,0,0,1,.3-1.77,1.39,1.39,0,0,1,.89-1,.63.63,0,0,1,.74.31c.1.2.06.34.09.35s.15-.12.09-.41a.81.81,0,0,0-.29-.43.88.88,0,0,0-.69-.16,1.72,1.72,0,0,0-1.25,1.12,4.25,4.25,0,0,0-.37,2c.09,1.42.85,2.72,1.88,3a1.27,1.27,0,0,0,1.11-.22C49.56,164.84,49.59,164.68,49.56,164.67Z"/><path class="cls-6" d="M49.61,156.85l1.94,1.69c11.22-7.38,22.62-27.45,19.67-26.63a22.37,22.37,0,0,0-11.08-.21c-5.63,1.48-16.22,5.31-15.45,12S49.61,156.85,49.61,156.85Z"/><path class="cls-6" d="M46.32,128.69c2.73,1.6,5.16,6.25,4,9.21a9.27,9.27,0,0,1-11.85,10.36,9,9,0,0,1-5-3.87,10.77,10.77,0,0,1-1.1-7.46,11.91,11.91,0,0,1,4.94-7.79A8.78,8.78,0,0,1,46.32,128.69Z"/><path class="cls-8" d="M45.7,156.87a6.8,6.8,0,0,0,1.28-.56c.81-.39,2-1,3.36-1.79a50.19,50.19,0,0,0,10.1-7.47,33.65,33.65,0,0,0,7.31-10.2,24.52,24.52,0,0,0,1.31-3.59,6.1,6.1,0,0,0,.28-1.37c-.1,0-.54,1.92-1.93,4.8a36.23,36.23,0,0,1-7.34,10,57.14,57.14,0,0,1-9.92,7.53c-1.37.83-2.49,1.48-3.27,1.93A6.92,6.92,0,0,0,45.7,156.87Z"/><path class="cls-8" d="M39.55,151.58c.1,0,.14-1.31.53-3.38a27.33,27.33,0,0,1,2.75-7.7,27,27,0,0,1,5-6.51c1.52-1.46,2.6-2.21,2.54-2.29a3.42,3.42,0,0,0-.8.46,18,18,0,0,0-2,1.55,24.48,24.48,0,0,0-5.16,6.54,24.18,24.18,0,0,0-2.65,7.89,17.14,17.14,0,0,0-.21,2.51A3.1,3.1,0,0,0,39.55,151.58Z"/><path class="cls-6" d="M47,167.92a2.64,2.64,0,1,0,2.64-2.64A2.64,2.64,0,0,0,47,167.92Z"/><path class="cls-6" d="M71.87,166.33c0-.25-1.67,0-3.09-1.16s-1.55-3-1.78-3-.25.45-.14,1.19a4.15,4.15,0,0,0,1.39,2.49,3.66,3.66,0,0,0,2.58.87C71.53,166.7,71.9,166.44,71.87,166.33Z"/><path class="cls-6" d="M34.29,256s-7.87,27.75-3.19,42.82c2.8,9,42.14,58.83,44,61,1.32,1.49-16.82,48.53-20.14,58.33l20.86,10.11S102,372.75,103.55,363c2-12.49-27.31-65.92-26.23-66.64l10.55-22L79.11,251.7s-36.91.4-44.45,1Z"/><path class="cls-6" d="M79.92,272.38s50.89,18.06,56.62,21.11c6.26,3.33,11,15,5.77,24.95s-51,38.38-51,38.38L79.92,339.44,113,313.36l-35.84-8.44L65.51,291.08Z"/><path class="cls-8" d="M103.55,362.7a18,18,0,0,0,0-3.53,40.12,40.12,0,0,0-2.58-9.3c-.72-1.91-1.59-4-2.51-6.21-.46-1.11-.9-2.29-1.36-3.48s-1-2.4-1.53-3.65c-2.17-5-4.64-10.38-7.23-16.06L77.13,296.15l0-.07V296c1.33-5.48,2.49-10,3.38-13.07.44-1.55.82-2.75,1.11-3.56a6.69,6.69,0,0,1,.39-.9c.11-.2.17-.29.18-.28a1.91,1.91,0,0,1-.13.31c-.09.19-.18.51-.32.91-.25.82-.59,2-1,3.59-.82,3.11-1.92,7.61-3.2,13.1V296c3.16,6.72,7.09,15.14,11.28,24.28,2.6,5.69,5.06,11.11,7.2,16.09.53,1.25,1.06,2.46,1.52,3.68s.87,2.36,1.33,3.48c.9,2.23,1.75,4.31,2.46,6.24a38,38,0,0,1,2.43,9.41A10.31,10.31,0,0,1,103.55,362.7Z"/><path class="cls-15" d="M80.64,282.83c-.1.37,0,13.37,0,13.37l6.53,11.07L82,306l-4.64-9.66Z"/><path class="cls-8" d="M109.51,280.84c-1.46-1.44-5.77-5.48-8.8-8.32a1.76,1.76,0,0,1,1.18-3l34.84-.71a1.72,1.72,0,0,1,1.36.59l7.29,8.18a1.77,1.77,0,0,1-1.28,2.94l-33.3.88A1.79,1.79,0,0,1,109.51,280.84Z"/><path class="cls-13" d="M99.65,274.58a30.46,30.46,0,0,1,8.1-2.2c4-.4,6.07,1.3,8.24,1.1s8.1.38,8.1,2-8.24,2.17-8.24,2.17l7.23,2.31s8.24-1,8.39,0-7.38,2-10.85,2.46-23.57.72-26.47,0-23.43-13.16-23.43-13.16l9.84-10.12Z"/><path class="cls-12" d="M49,184.05A16.91,16.91,0,0,0,36.31,195.8c-2.69,8.56,2.44,43.75,4.62,50.11S66.6,272.71,68.66,271s13.51-11.86,13.51-11.86L63.8,237.39s1-25.78-.25-30.65S54.11,183.57,49,184.05Z"/><path class="cls-12" d="M37.52,227c1.34,12.23-1.28,17.48-1.28,17.48a9.49,9.49,0,0,0-3.42,6.26,1.78,1.78,0,0,0,1.84,2l44.45-1s6.22.59,6.09-5.31c-.15-6.58,1.67-29.71-.72-38.81-.83-3.14-11-18.44-11-18.44l-21.19-12-2.24,5.78s-6.73,2.45-9.8,6.41A22.2,22.2,0,0,0,36,198C34.18,204.28,36.8,220.42,37.52,227Z"/><path class="cls-13" d="M149.29,206.58s-.39-.35-1.74.08-5.18,2.32-6.92,2.77-5.5,1.9-5.5,1.9a7.57,7.57,0,0,0-4.77,1.6c-2.66,1.84-10.18,6.8-10.18,6.8l2.58,7.32a15.07,15.07,0,0,1,3.73-.24,11.66,11.66,0,0,0,5.33-.22c2.05-.62,4.81-1.72,4.81-1.72s2.7.22,3.4-.76-.05-2.74-.05-2.74h0s2.65-2.43,1.51-3.79-2.55-2.88-2.55-2.88,7.84-4.16,9.33-5.26S150,207.46,149.29,206.58Z"/><polygon class="cls-13" points="120.18 219.74 95.78 227.95 85.92 232.93 99.76 240.39 122.76 227.05 120.18 219.74"/><path class="cls-14" d="M135,213.71a12.13,12.13,0,0,1-.3,6.28c0,.14-.08.27-.11.39l-.21-.33c1.62.29,3.06.57,4.1.81s1.63.66,1.58.71a15.47,15.47,0,0,0-1.64-.36c-1-.14-2.51-.37-4.13-.65l-.28-.05.08-.28c0-.12.07-.25.11-.38A31.67,31.67,0,0,0,135,213.71Z"/><path class="cls-14" d="M134.84,217.18c0-.05.22,0,.5.16a2,2,0,0,1,.8,1.14l-.26-.19a9.39,9.39,0,0,1,1.38-.13,5.31,5.31,0,0,1,3.11.64c0,.14-1.41-.16-3.1-.12-.48,0-.93,0-1.33.08l-.22,0,0-.2C135.49,217.63,134.77,217.26,134.84,217.18Z"/><path class="cls-14" d="M138.52,215.3c.08.13-.58.68-1.17,1.53s-.91,1.64-1,1.61,0-1,.63-1.91S138.45,215.18,138.52,215.3Z"/><path class="cls-12" d="M73,183.77l2.45,6.59c2.67,2.52,9.31,9.63,10.57,14.52,1.65,6.4,9.08,22.48,9.08,22.48s16.86-7.19,18-6,7.07,15,5.13,17.94-19.16,10.53-26.13,8.81S78.6,236.31,78.6,236.31Z"/><path class="cls-6" d="M84.11,205a9,9,0,0,1,.55,1.5,13.88,13.88,0,0,1,.51,1.81c.16.71.38,1.52.5,2.43a45.87,45.87,0,0,1,.57,6.45c0,2.44,0,5.11-.21,7.91-.39,5.6-.79,10.65-.74,14.31,0,.92,0,1.75,0,2.47s.06,1.36.11,1.87a9.08,9.08,0,0,1,.06,1.59,9.27,9.27,0,0,1-.26-1.57,18.54,18.54,0,0,1-.2-1.87c0-.73-.12-1.56-.13-2.48-.14-3.69.2-8.77.59-14.35.17-2.79.27-5.45.26-7.87a49.76,49.76,0,0,0-.47-6.4C84.78,207.13,84,205,84.11,205Z"/><path class="cls-6" d="M94.89,236.89A22.69,22.69,0,0,1,94.7,232a22.15,22.15,0,0,1,.33-4.89,23.48,23.48,0,0,1,.19,4.89A23.7,23.7,0,0,1,94.89,236.89Z"/><path class="cls-6" d="M63.43,203.8a2.52,2.52,0,0,1,0,.59c0,.45,0,1,0,1.69,0,1.54,0,3.65.08,6.22.07,5.25.34,12.51.12,20.53a11.54,11.54,0,0,0,1,5.57,24.89,24.89,0,0,0,3.3,4.24l6.08,7,4.07,4.71,1.08,1.3a2.45,2.45,0,0,1,.35.47,3.15,3.15,0,0,1-.43-.4L78,254.43c-1-1.14-2.45-2.7-4.19-4.6L67.66,243a25,25,0,0,1-3.39-4.32,11.94,11.94,0,0,1-1.1-5.81c.22-8,0-15.27,0-20.52,0-2.63,0-4.76.08-6.23,0-.73.05-1.3.08-1.69A2.27,2.27,0,0,1,63.43,203.8Z"/><path class="cls-6" d="M48.17,184.05c0,.06-1,.35-2.69,1.26a18.6,18.6,0,0,0-6,5.26,17.94,17.94,0,0,0-2.57,4.89,16.44,16.44,0,0,0-.74,3c-.14,1.05-.23,2.15-.3,3.28a57.54,57.54,0,0,0,0,7.07c.17,2.44.5,5,.76,7.57.55,5.2,1.08,10.15,1.55,14.66A75.17,75.17,0,0,0,40,242.87a20.53,20.53,0,0,0,3.46,7.22,15.92,15.92,0,0,0,1.45,1.65,6.94,6.94,0,0,1,.54.54l-.16-.1c-.11-.08-.26-.2-.45-.37a13.31,13.31,0,0,1-1.54-1.59A19.86,19.86,0,0,1,39.6,243a71.16,71.16,0,0,1-1.88-11.9c-.49-4.51-1-9.46-1.59-14.65-.26-2.6-.6-5.13-.76-7.6a56.4,56.4,0,0,1,0-7.13c.08-1.14.17-2.24.33-3.32a17,17,0,0,1,.78-3.05,18.46,18.46,0,0,1,8.89-10.19,14,14,0,0,1,2-.86A5.25,5.25,0,0,1,48.17,184.05Z"/><path class="cls-6" d="M73.36,190.58a5,5,0,0,1-1-.62l-2.71-1.84.29-.14c0,1.38,0,3,0,4.79v.37l-.34-.17-5.62-2.82c-3.83-1.94-7.28-3.73-9.77-5l-2.93-1.58a5.81,5.81,0,0,1-1-.64,5.05,5.05,0,0,1,1.13.46l3,1.43c2.53,1.23,6,3,9.84,4.91l5.59,2.86-.34.21c.06-1.79.11-3.41.15-4.79v-.35l.28.2,2.62,2A4.89,4.89,0,0,1,73.36,190.58Z"/><path class="cls-6" d="M81.24,412.88,73,430.09s15.78,14.46,14.58,17.8L51.66,432.52l11.65-27.36Z"/><path class="cls-2" d="M62.54,423.87a1.5,1.5,0,0,0-1.7,1.14,1.52,1.52,0,0,0,1.23,1.67,1.59,1.59,0,0,0,1.8-1.22,1.62,1.62,0,0,0-1.48-1.61"/><path class="cls-8" d="M51.66,432.52,53,429.81l34,15.75s1.31,1.34.67,2.33Z"/><path class="cls-5" d="M73.67,430.16c-.07.17-1-.13-2.08,0s-1.85.67-2,.53.55-1,1.87-1.15S73.78,430,73.67,430.16Z"/><path class="cls-5" d="M76.81,433.25c0,.18-.92.14-1.81.58s-1.4,1.12-1.57,1,.12-1.06,1.25-1.6S76.87,433.09,76.81,433.25Z"/><path class="cls-5" d="M77.11,438.43c-.18,0-.07-1,.78-1.68s1.82-.73,1.83-.56-.7.44-1.38,1S77.29,438.49,77.11,438.43Z"/></g></g></svg>